# xmcd
#
# Track frame offsets: 
#        150
#        13545
#        28665
#        40985
#        51925
#        65735
#        76545
#        89565
#        100810
#        110920
#        121910
#        133035
#        142825
#        153470
#        166425
#        177405
#        187955
#        200435
#        211370
#        225020
#        238855
#        246855
#
# Disc length: 3411 seconds
#
# Revision: 0
# Processed by: cddbd v1.5.2PL0 Copyright (c) Steve Scherf et al.
# Submitted via: ExactAudioCopy v1.0b1
#
DISCID=2b0d5116
DTITLE=Etta James - Dance with me, Henry
DYEAR=1900
DGENRE=Blues
TTITLE0=Dance with me, Henry
TTITLE1=Do Something Crazy
TTITLE2=W-O-M-A-N
TTITLE3=Number One
TTITLE4=I Hope You're Satisfied
TTITLE5=Good Rockin' Daddy
TTITLE6=Hey Henry
TTITLE7=Strange Things Happening
TTITLE8=That's All
TTITLE9=I'm a Fool
TTITLE10=Tears of Joy
TTITLE11=Tougher Lover
TTITLE12=The Pick Up
TTITLE13=Market Place
TTITLE14=Sunshine of Love
TTITLE15=Baby, Baby, Everynight
TTITLE16=How Big a Fool
TTITLE17=Nobody Loves You (Like Me)
TTITLE18=Hickory Dickory Dock
TTITLE19=You Know What I Mean
TTITLE20=We're In Love
TTITLE21=Be My Lovey Dovey
EXTD=
EXTT0=
EXTT1=
EXTT2=
EXTT3=
EXTT4=
EXTT5=
EXTT6=
EXTT7=
EXTT8=
EXTT9=
EXTT10=
EXTT11=
EXTT12=
EXTT13=
EXTT14=
EXTT15=
EXTT16=
EXTT17=
EXTT18=
EXTT19=
EXTT20=
EXTT21=
PLAYORDER=
